<svg width="148" height="19" viewBox="0 0 148 19" fill="none" xmlns="http://www.w3.org/2000/svg">
<path d="M0.721591 18V0.545454H12.0739V3.19602H3.88352V7.93466H11.4858V10.5852H3.88352V15.3494H12.142V18H0.721591ZM15.2997 0.545454H19.169L24.3509 13.1932H24.5554L29.7372 0.545454H33.6065V18H30.5724V6.00852H30.4105L25.5866 17.9489H23.3196L18.4957 5.98295H18.3338V18H15.2997V0.545454ZM46.5355 5.34375C46.456 4.59943 46.1207 4.01989 45.5298 3.60511C44.9446 3.19034 44.1832 2.98295 43.2457 2.98295C42.5866 2.98295 42.0213 3.08239 41.5497 3.28125C41.0781 3.48011 40.7173 3.75 40.4673 4.09091C40.2173 4.43182 40.0895 4.82102 40.0838 5.25852C40.0838 5.62216 40.1662 5.9375 40.331 6.20455C40.5014 6.47159 40.7315 6.69886 41.0213 6.88636C41.3111 7.06818 41.6321 7.22159 41.9844 7.34659C42.3366 7.47159 42.6918 7.5767 43.0497 7.66193L44.6861 8.07102C45.3452 8.22443 45.9787 8.43182 46.5866 8.69318C47.2003 8.95455 47.7486 9.28409 48.2315 9.68182C48.7202 10.0795 49.1065 10.5597 49.3906 11.1222C49.6747 11.6847 49.8168 12.3437 49.8168 13.0994C49.8168 14.1222 49.5554 15.0227 49.0327 15.8011C48.5099 16.5739 47.7543 17.179 46.7656 17.6165C45.7827 18.0483 44.5923 18.2642 43.1946 18.2642C41.8366 18.2642 40.6577 18.054 39.6577 17.6335C38.6634 17.2131 37.8849 16.5994 37.3224 15.7926C36.7656 14.9858 36.4645 14.0028 36.419 12.8438H39.5298C39.5753 13.4517 39.7628 13.9574 40.0923 14.3608C40.4219 14.7642 40.8509 15.0653 41.3793 15.2642C41.9134 15.4631 42.5099 15.5625 43.169 15.5625C43.8565 15.5625 44.4588 15.4602 44.9759 15.2557C45.4986 15.0455 45.9077 14.7557 46.2031 14.3864C46.4986 14.0114 46.6491 13.5739 46.6548 13.0739C46.6491 12.6193 46.5156 12.2443 46.2543 11.9489C45.9929 11.6477 45.6264 11.3977 45.1548 11.1989C44.6889 10.9943 44.1435 10.8125 43.5185 10.6534L41.5327 10.142C40.0952 9.77273 38.9588 9.21307 38.1236 8.46307C37.294 7.70739 36.8793 6.70455 36.8793 5.45454C36.8793 4.42614 37.1577 3.52557 37.7145 2.75284C38.277 1.98011 39.0412 1.38068 40.0071 0.954545C40.973 0.522727 42.0668 0.306818 43.2884 0.306818C44.527 0.306818 45.6122 0.522727 46.544 0.954545C47.4815 1.38068 48.2173 1.97443 48.7514 2.73579C49.2855 3.49148 49.5611 4.3608 49.5781 5.34375H46.5355Z" fill="#222C68"/>
<path d="M52.4993 18V4.90909H55.4482V7.13352H55.6016C55.8743 6.38352 56.326 5.7983 56.9567 5.37784C57.5874 4.9517 58.3402 4.73864 59.2152 4.73864C60.1016 4.73864 60.8487 4.95455 61.4567 5.38636C62.0703 5.8125 62.5021 6.39489 62.7521 7.13352H62.8885C63.1783 6.40625 63.6669 5.8267 64.3544 5.39489C65.0476 4.95739 65.8686 4.73864 66.8175 4.73864C68.022 4.73864 69.005 5.11932 69.7663 5.88068C70.5277 6.64205 70.9084 7.75284 70.9084 9.21307V18H67.8146V9.69034C67.8146 8.87784 67.5987 8.28409 67.1669 7.90909C66.7351 7.52841 66.2067 7.33807 65.5817 7.33807C64.8374 7.33807 64.255 7.57102 63.8345 8.03693C63.4197 8.49716 63.2124 9.09659 63.2124 9.83523V18H60.1868V9.5625C60.1868 8.88636 59.9822 8.34659 59.5732 7.94318C59.1697 7.53977 58.6413 7.33807 57.9879 7.33807C57.5447 7.33807 57.1413 7.4517 56.7777 7.67898C56.4141 7.90057 56.1243 8.21591 55.9084 8.625C55.6925 9.02841 55.5845 9.5 55.5845 10.0398V18H52.4993ZM77.8054 18.2642C76.9759 18.2642 76.2287 18.1165 75.5639 17.821C74.9048 17.5199 74.3821 17.0767 73.9957 16.4915C73.6151 15.9062 73.4247 15.1847 73.4247 14.3267C73.4247 13.5881 73.5611 12.9773 73.8338 12.4943C74.1065 12.0114 74.4787 11.625 74.9503 11.3352C75.4219 11.0455 75.9531 10.8267 76.544 10.679C77.1406 10.5256 77.7571 10.4148 78.3935 10.3466C79.1605 10.267 79.7827 10.196 80.2599 10.1335C80.7372 10.0653 81.0838 9.96307 81.2997 9.8267C81.5213 9.68466 81.6321 9.46591 81.6321 9.17045V9.11932C81.6321 8.47727 81.4418 7.98011 81.0611 7.62784C80.6804 7.27557 80.1321 7.09943 79.4162 7.09943C78.6605 7.09943 78.0611 7.2642 77.6179 7.59375C77.1804 7.9233 76.8849 8.3125 76.7315 8.76136L73.8509 8.35227C74.0781 7.55682 74.4531 6.89205 74.9759 6.35795C75.4986 5.81818 76.1378 5.41477 76.8935 5.14773C77.6491 4.875 78.4844 4.73864 79.3991 4.73864C80.0298 4.73864 80.6577 4.8125 81.2827 4.96023C81.9077 5.10795 82.4787 5.35227 82.9957 5.69318C83.5128 6.02841 83.9276 6.4858 84.2401 7.06534C84.5582 7.64489 84.7173 8.36932 84.7173 9.23864V18H81.7514V16.2017H81.6491C81.4616 16.5653 81.1974 16.9062 80.8565 17.2244C80.5213 17.5369 80.098 17.7898 79.5866 17.983C79.081 18.1705 78.4872 18.2642 77.8054 18.2642ZM78.6065 15.9972C79.2259 15.9972 79.7628 15.875 80.2173 15.6307C80.6719 15.3807 81.0213 15.0511 81.2656 14.642C81.5156 14.233 81.6406 13.7869 81.6406 13.304V11.7614C81.544 11.8409 81.3793 11.9148 81.1463 11.983C80.919 12.0511 80.6634 12.1108 80.3793 12.1619C80.0952 12.2131 79.8139 12.2585 79.5355 12.2983C79.2571 12.3381 79.0156 12.3722 78.8111 12.4006C78.3509 12.4631 77.9389 12.5653 77.5753 12.7074C77.2116 12.8494 76.9247 13.0483 76.7145 13.304C76.5043 13.554 76.3991 13.8778 76.3991 14.2756C76.3991 14.8438 76.6065 15.2727 77.0213 15.5625C77.4361 15.8523 77.9645 15.9972 78.6065 15.9972ZM87.8196 18V4.90909H90.8111V7.09091H90.9474C91.1861 6.33523 91.5952 5.75284 92.1747 5.34375C92.7599 4.92898 93.4276 4.72159 94.1776 4.72159C94.348 4.72159 94.5384 4.73011 94.7486 4.74716C94.9645 4.75852 95.1435 4.77841 95.2855 4.80682V7.64489C95.1548 7.59943 94.9474 7.55966 94.6634 7.52557C94.3849 7.4858 94.1151 7.46591 93.8537 7.46591C93.2912 7.46591 92.7855 7.58807 92.3366 7.83239C91.8935 8.07102 91.544 8.40341 91.2884 8.82955C91.0327 9.25568 90.9048 9.74716 90.9048 10.304V18H87.8196ZM104.575 4.90909V7.29545H97.0497V4.90909H104.575ZM98.9077 1.77273H101.993V14.0625C101.993 14.4773 102.055 14.7955 102.18 15.017C102.311 15.233 102.482 15.3807 102.692 15.4602C102.902 15.5398 103.135 15.5795 103.391 15.5795C103.584 15.5795 103.76 15.5653 103.919 15.5369C104.084 15.5085 104.209 15.483 104.294 15.4602L104.814 17.8722C104.649 17.929 104.413 17.9915 104.107 18.0597C103.805 18.1278 103.436 18.1676 102.999 18.179C102.226 18.2017 101.53 18.0852 100.911 17.8295C100.291 17.5682 99.7997 17.1648 99.4361 16.6193C99.0781 16.0739 98.902 15.392 98.9077 14.5739V1.77273ZM113.075 18V15.7159L119.134 9.77557C119.714 9.19034 120.197 8.67045 120.583 8.21591C120.969 7.76136 121.259 7.32102 121.452 6.89489C121.646 6.46875 121.742 6.0142 121.742 5.53125C121.742 4.98011 121.617 4.50852 121.367 4.11648C121.117 3.71875 120.773 3.41193 120.336 3.19602C119.898 2.98011 119.401 2.87216 118.844 2.87216C118.271 2.87216 117.768 2.99148 117.336 3.23011C116.904 3.46307 116.569 3.79545 116.33 4.22727C116.097 4.65909 115.981 5.1733 115.981 5.76989H112.972C112.972 4.66193 113.225 3.69886 113.731 2.88068C114.237 2.0625 114.933 1.42898 115.819 0.980114C116.711 0.53125 117.734 0.306818 118.887 0.306818C120.058 0.306818 121.086 0.525568 121.972 0.963068C122.859 1.40057 123.546 2 124.035 2.76136C124.529 3.52273 124.776 4.39204 124.776 5.36932C124.776 6.02273 124.651 6.66477 124.401 7.29545C124.151 7.92614 123.711 8.625 123.08 9.39205C122.455 10.1591 121.577 11.0881 120.447 12.179L117.438 15.2386V15.358H125.04V18H113.075ZM129.915 18.1875C129.398 18.1875 128.955 18.0057 128.586 17.642C128.217 17.2784 128.035 16.8352 128.04 16.3125C128.035 15.8011 128.217 15.3636 128.586 15C128.955 14.6364 129.398 14.4545 129.915 14.4545C130.415 14.4545 130.85 14.6364 131.219 15C131.594 15.3636 131.785 15.8011 131.79 16.3125C131.785 16.6591 131.694 16.9744 131.518 17.2585C131.347 17.5426 131.12 17.7699 130.836 17.9403C130.558 18.1051 130.251 18.1875 129.915 18.1875ZM140.714 18.3324C139.31 18.3324 138.106 17.9773 137.1 17.267C136.1 16.5511 135.33 15.5199 134.79 14.1733C134.256 12.821 133.989 11.1932 133.989 9.28977C133.995 7.38636 134.265 5.76705 134.799 4.43182C135.339 3.09091 136.109 2.06818 137.109 1.36364C138.114 0.659091 139.316 0.306818 140.714 0.306818C142.112 0.306818 143.313 0.659091 144.319 1.36364C145.325 2.06818 146.094 3.09091 146.629 4.43182C147.168 5.77273 147.438 7.39205 147.438 9.28977C147.438 11.1989 147.168 12.8295 146.629 14.1818C146.094 15.5284 145.325 16.5568 144.319 17.267C143.319 17.9773 142.117 18.3324 140.714 18.3324ZM140.714 15.6648C141.805 15.6648 142.665 15.1278 143.296 14.054C143.933 12.9744 144.251 11.3864 144.251 9.28977C144.251 7.90341 144.106 6.73864 143.816 5.79545C143.526 4.85227 143.117 4.14205 142.589 3.66477C142.06 3.18182 141.435 2.94034 140.714 2.94034C139.629 2.94034 138.771 3.48011 138.14 4.55966C137.509 5.63352 137.191 7.21023 137.185 9.28977C137.18 10.6818 137.319 11.8523 137.603 12.8011C137.893 13.75 138.302 14.4659 138.83 14.9489C139.359 15.4261 139.987 15.6648 140.714 15.6648Z" fill="white"/>
</svg>
